<svg width="134" height="40" viewBox="0 0 134 40" fill="none" xmlns="http://www.w3.org/2000/svg">
<rect width="133.333" height="40" fill="white"/>
<g clip-path="url(#clip0_112_1125)">
<path d="M21.4558 23.2963H18.1532C17.9698 23.2963 17.8238 23.4423 17.8238 23.6257V27.4371C17.8238 27.6205 17.6779 27.7665 17.4944 27.7665H14.3294C14.1459 27.7665 14 27.6205 14 27.4371V12.3294C14 12.1459 14.1459 12 14.3294 12H21.4558C24.8585 12 27.4605 14.2768 27.4605 17.6544C27.4605 21.0321 24.8585 23.2963 21.4558 23.2963ZM17.8197 15.5444V19.7477C17.8197 19.9312 17.9656 20.0771 18.1491 20.0771H21.1848C22.6359 20.0771 23.5408 18.9971 23.5408 17.6377C23.5408 16.1741 22.59 15.2108 21.1848 15.2108H18.1491C17.9656 15.2108 17.8197 15.3568 17.8197 15.5403V15.5444Z" fill="black"/>
<path d="M29.4837 12H32.6445C32.828 12 32.9739 12.1459 32.9739 12.3294V21.8827C32.9739 23.5757 33.9872 24.4389 35.4008 24.6432C37.4441 24.9393 39.233 23.2296 39.233 21.1655V12.3294C39.233 12.1459 39.379 12 39.5624 12H42.7232C42.9067 12 43.0527 12.1459 43.0527 12.3294V22.0912C43.0527 26.2611 39.7334 28 36.0972 28C32.1608 28 29.1543 26.1069 29.1543 22.0912V12.3294C29.1543 12.1459 29.3002 12 29.4837 12Z" fill="black"/>
<path d="M48.915 12.1168L54.1357 18.3049C54.2691 18.4634 54.5068 18.4592 54.6403 18.3049L59.8402 12.1168C59.9027 12.0417 59.9945 12 60.0945 12H62.8383C63.0218 12 63.1678 12.1459 63.1678 12.3294V27.4371C63.1678 27.6205 63.0218 27.7665 62.8383 27.7665H59.6775C59.4941 27.7665 59.3481 27.6205 59.3481 27.4371V18.4425C59.3481 18.2674 59.1313 18.184 59.0145 18.3174C59.0145 18.3174 54.7529 23.1962 54.6361 23.3339C54.5193 23.4715 54.2983 23.4798 54.1732 23.3339C54.0481 23.1879 49.749 18.3133 49.749 18.3133C49.6322 18.1798 49.4154 18.2632 49.4154 18.4384V27.4371C49.4154 27.6205 49.2694 27.7665 49.0859 27.7665H45.9251C45.7417 27.7665 45.5957 27.6205 45.5957 27.4371V12.3294C45.5957 12.1459 45.7417 12 45.9251 12H48.6689C48.7648 12 48.8566 12.0417 48.9191 12.1168H48.915Z" fill="black"/>
<path d="M73.2466 23.2963H69.944C69.7605 23.2963 69.6146 23.4423 69.6146 23.6257V27.4371C69.6146 27.6205 69.4686 27.7665 69.2852 27.7665H66.1243C65.9409 27.7665 65.7949 27.6205 65.7949 27.4371V12.3294C65.7949 12.1459 65.9409 12 66.1243 12H73.2466C76.6492 12 79.2513 14.2768 79.2513 17.6544C79.2513 21.0321 76.6492 23.2963 73.2466 23.2963ZM69.6146 15.5444V19.7477C69.6146 19.9312 69.7605 20.0771 69.944 20.0771H72.9797C74.4308 20.0771 75.3357 18.9971 75.3357 17.6377C75.3357 16.1741 74.385 15.2108 72.9797 15.2108H69.944C69.7605 15.2108 69.6146 15.3568 69.6146 15.5403V15.5444Z" fill="black"/>
<path d="M87.3565 18.3133L90.8009 12.1918C90.8592 12.0876 90.9676 12.025 91.0886 12.025H94.558C94.8123 12.025 94.9708 12.3044 94.8415 12.5212L90.4548 19.9604C90.388 20.0771 90.3964 20.2231 90.4756 20.3273L95.7839 27.2369C95.9507 27.4537 95.7964 27.7665 95.5212 27.7665H91.6557C91.5514 27.7665 91.4514 27.7164 91.3888 27.633L87.1271 21.8285C87.0646 21.7451 86.9645 21.6951 86.8603 21.6951H85.1881C85.0047 21.6951 84.8587 21.841 84.8587 22.0245V27.4371C84.8587 27.6205 84.7128 27.7665 84.5293 27.7665H81.3685C81.185 27.7665 81.0391 27.6205 81.0391 27.4371V12.3294C81.0391 12.1459 81.185 12 81.3685 12H84.5293C84.7128 12 84.8587 12.1459 84.8587 12.3294V18.1506C84.8587 18.3341 85.0047 18.4801 85.1881 18.4801H87.0688C87.1897 18.4801 87.2981 18.4175 87.3565 18.3133Z" fill="black"/>
<path d="M100.881 27.7665H97.7201C97.5366 27.7665 97.3906 27.6205 97.3906 27.4371V12.3294C97.3906 12.1459 97.5366 12 97.7201 12H100.881C101.064 12 101.21 12.1459 101.21 12.3294V27.4371C101.21 27.6205 101.064 27.7665 100.881 27.7665Z" fill="black"/>
<path d="M107.326 27.7665H104.165C103.982 27.7665 103.836 27.6205 103.836 27.4371V12.3294C103.836 12.1459 103.982 12 104.165 12H106.934C107.03 12 107.126 12.0417 107.189 12.1168L114.578 20.9195C114.774 21.1572 115.161 21.0154 115.161 20.7068V12.3294C115.161 12.1459 115.307 12 115.491 12H118.652C118.835 12 118.981 12.1459 118.981 12.3294V27.4371C118.981 27.6205 118.835 27.7665 118.652 27.7665H115.824C115.729 27.7665 115.637 27.7248 115.57 27.6497L108.239 18.9388C108.039 18.7052 107.656 18.8428 107.656 19.1514V27.4371C107.656 27.6205 107.51 27.7665 107.326 27.7665Z" fill="black"/>
</g>
<defs>
<clipPath id="clip0_112_1125">
<rect width="104.978" height="16" fill="white" transform="translate(14 12)"/>
</clipPath>
</defs>
</svg>
